<svg width="60" height="60" viewBox="0 0 60 60" fill="none" xmlns="http://www.w3.org/2000/svg">
<path fill-rule="evenodd" clip-rule="evenodd" d="M30 60C46.5685 60 60 46.5685 60 30C60 13.4315 46.5685 0 30 0C13.4315 0 0 13.4315 0 30C0 35.7602 1.62339 41.1412 4.43761 45.7104C4.54037 45.8773 4.64472 46.043 4.75063 46.2077C8.41845 51.9089 13.9651 56.2867 20.5162 58.4677C22.0172 58.7421 22.5641 57.8157 22.5641 57.0201C22.5641 56.6909 22.5586 56.1095 22.5512 55.3314L22.5512 55.3299C22.5426 54.4278 22.5315 53.2618 22.5236 51.9187C14.179 53.7309 12.4183 47.8964 12.4183 47.8964C11.0537 44.4323 9.08675 43.5096 9.08675 43.5096C6.36291 41.6476 9.29302 41.6845 9.29302 41.6845C12.3042 41.8981 13.888 44.7766 13.888 44.7766C16.564 49.3606 20.9103 48.0364 22.6194 47.2703C22.892 45.331 23.6655 44.0087 24.5237 43.2591C17.8623 42.5022 10.8584 39.9275 10.8584 28.4318C10.8584 25.1573 12.0279 22.4795 13.9469 20.3818C13.6375 19.623 12.608 16.5732 14.2398 12.4423C14.2398 12.4423 16.7592 11.6357 22.4905 15.5179C24.8828 14.8531 27.4501 14.5197 30.0008 14.5087C32.5479 14.5197 35.1152 14.8531 37.5112 15.5179C43.2388 11.6357 45.7527 12.4423 45.7527 12.4423C47.3899 16.5732 46.3605 19.623 46.0511 20.3818C47.9738 22.4795 49.1359 25.1573 49.1359 28.4318C49.1359 39.957 42.1209 42.493 35.4375 43.2352C36.5148 44.1615 37.4744 45.9922 37.4744 48.7915C37.4744 51.4728 37.4579 53.8082 37.447 55.3553L37.447 55.3576C37.4416 56.1227 37.4375 56.6947 37.4375 57.0201C37.4375 57.8231 37.9771 58.7568 39.5002 58.464C44.8874 56.6658 49.5946 53.3827 53.1351 49.1C47.6325 55.7575 39.3117 60 29.9999 60C27.6801 60 25.4218 59.7367 23.2532 59.2383C25.4218 59.7367 27.6802 60 30 60Z" fill="#393939"/>
</svg>
