<svg width="60" height="60" viewBox="0 0 60 60" fill="none" xmlns="http://www.w3.org/2000/svg">
<path fill-rule="evenodd" clip-rule="evenodd" d="M60 30C60 46.5685 46.5685 60 30 60C13.4315 60 0 46.5685 0 30C0 13.4315 13.4315 0 30 0C46.5685 0 60 13.4315 60 30ZM22.1621 15.4259C22.1621 17.2935 20.7401 18.805 18.5162 18.805C16.379 18.805 14.957 17.2935 15.001 15.4259C14.957 13.4675 16.379 12 18.5588 12C20.74 12 22.1195 13.4675 22.1621 15.4259ZM15.1798 43.2272V21.4744H21.9407V43.2272H15.1798ZM27.1809 21.4772C27.2703 23.3903 27.3597 25.7035 27.3597 28.4169H27.3624V43.2315H34.1233V30.6861C34.1233 30.0618 34.2113 29.4401 34.3901 28.9946C34.8343 27.7499 35.9456 26.4599 37.8146 26.4599C40.2612 26.4599 41.239 28.3715 41.239 31.1758V43.2315H48V30.3286C48 23.9253 44.6635 20.989 40.2158 20.989C36.6126 20.989 34.3887 23.0781 33.4989 24.4575H33.3655L33.0533 21.4772H27.1809Z" fill="#393939"/>
</svg>
