<svg width="60" height="60" viewBox="0 0 60 60" fill="none" xmlns="http://www.w3.org/2000/svg">
<path fill-rule="evenodd" clip-rule="evenodd" d="M30 60C46.5685 60 60 46.5685 60 30C60 13.4315 46.5685 0 30 0C13.4315 0 0 13.4315 0 30C0 46.5685 13.4315 60 30 60ZM10.3909 26.1837V24.7555H7.94907V40.1054H10.4972V33.6241H10.5396C10.865 34.1362 11.3284 34.5411 11.9304 34.8396C12.5319 35.1379 13.1937 35.2871 13.9158 35.2871C14.6941 35.2871 15.3915 35.1414 16.0074 34.8502C16.6233 34.5595 17.1468 34.168 17.5788 33.6777C18.0103 33.1873 18.3434 32.6118 18.5767 31.9509C18.8104 31.29 18.9273 30.5829 18.9273 29.8296C18.9273 29.0764 18.8069 28.3729 18.5663 27.7189C18.3254 27.0654 17.9857 26.4968 17.5471 26.0134C17.1082 25.5304 16.5842 25.1502 15.9756 24.8725C15.3668 24.5955 14.7016 24.4568 13.9795 24.4568C13.5124 24.4568 13.0909 24.5104 12.7162 24.6168C12.3409 24.7236 12.0047 24.8589 11.7075 25.0218C11.4102 25.1855 11.1587 25.3702 10.9536 25.5762C10.7482 25.7823 10.5819 25.985 10.4547 26.1837H10.3909ZM16.1561 28.6461C16.2763 29.037 16.3366 29.4314 16.3366 29.8295C16.3366 30.2273 16.2763 30.6254 16.1561 31.0234C16.0355 31.4214 15.8552 31.7768 15.6145 32.0893C15.3737 32.4021 15.0694 32.6579 14.7014 32.857C14.3333 33.0561 13.9016 33.1552 13.4063 33.1552C12.939 33.1552 12.5212 33.0596 12.1534 32.8675C11.7853 32.6761 11.4703 32.4236 11.2085 32.1111C10.9463 31.7982 10.7484 31.4466 10.6139 31.0554C10.4791 30.6648 10.4122 30.2704 10.4122 29.8723C10.4122 29.4746 10.4791 29.0764 10.6139 28.6784C10.7484 28.2804 10.9463 27.925 11.2085 27.6121C11.4701 27.3 11.7853 27.0439 12.1534 26.8448C12.5212 26.6457 12.939 26.5462 13.4063 26.5462C13.9016 26.5462 14.3333 26.6421 14.7014 26.8339C15.0696 27.0261 15.3737 27.2786 15.6145 27.5907C15.8552 27.9036 16.0355 28.2554 16.1561 28.6461ZM41.1742 24.2666V35.607C41.1742 36.218 41.1245 36.7973 41.0255 37.3445C40.926 37.8916 40.7389 38.3677 40.4627 38.773C40.1869 39.1784 39.8114 39.5012 39.3372 39.743C38.8627 39.9848 38.2438 40.1054 37.4792 40.1054C37.267 40.1054 37.0546 40.0911 36.8421 40.0629C36.6299 40.0343 36.4601 40.0057 36.3325 39.9773L36.5451 37.8027C36.6584 37.8312 36.7784 37.8525 36.9059 37.8668C37.0335 37.8807 37.1464 37.888 37.2456 37.888C37.5427 37.888 37.7833 37.8312 37.9676 37.7175C38.1513 37.6034 38.293 37.4471 38.3925 37.2484C38.4912 37.0493 38.555 36.8184 38.5835 36.5554C38.6116 36.2923 38.6258 36.012 38.6258 35.7134V24.2666H41.1742ZM48.9245 26.7062C49.321 26.9266 49.6322 27.1857 49.859 27.4843L51.5148 26.0132C51.1038 25.4877 50.5483 25.0964 49.8478 24.8404C49.1472 24.5848 48.4285 24.4568 47.6927 24.4568C47.1831 24.4568 46.6874 24.5209 46.2063 24.6489C45.7249 24.7766 45.293 24.9721 44.911 25.2348C44.5289 25.4986 44.2207 25.8354 43.9874 26.248C43.7535 26.6602 43.6368 27.1502 43.6368 27.7187C43.6368 28.2021 43.722 28.6071 43.8919 28.9339C44.0617 29.2614 44.2878 29.5346 44.5713 29.755C44.8544 29.9754 45.1765 30.1529 45.5374 30.2879C45.8984 30.4232 46.2702 30.533 46.6526 30.6186C47.4307 30.8032 48.0148 30.988 48.4045 31.1729C48.7934 31.3577 48.988 31.6629 48.988 32.0895C48.988 32.3173 48.9384 32.5087 48.8397 32.6654C48.7403 32.822 48.6093 32.9461 48.4468 33.0386C48.2839 33.1311 48.1071 33.1984 47.9161 33.2409C47.7247 33.2837 47.537 33.3046 47.3533 33.3046C46.8009 33.3046 46.2986 33.1841 45.8456 32.9423C45.3923 32.7009 45.0245 32.3954 44.7413 32.0257L43.0638 33.6036C43.5591 34.1434 44.1819 34.5595 44.9323 34.8504C45.6827 35.1416 46.4539 35.2873 47.247 35.2873C47.7994 35.2873 48.3333 35.227 48.8502 35.1062C49.3668 34.9855 49.8197 34.79 50.2092 34.52C50.5987 34.25 50.9103 33.8982 51.1436 33.4646C51.3772 33.0314 51.4942 32.502 51.4942 31.8762C51.4942 31.3787 51.3948 30.9561 51.1968 30.6077C50.9985 30.2595 50.7401 29.9679 50.4219 29.7336C50.1033 29.4989 49.7494 29.3105 49.3599 29.1686C48.9704 29.0266 48.5848 28.913 48.2028 28.8275C47.4808 28.657 46.932 28.4898 46.5569 28.3262C46.1818 28.1634 45.9945 27.8821 45.9945 27.4843C45.9945 27.0864 46.164 26.8018 46.5041 26.6316C46.8438 26.4611 47.2185 26.3755 47.6292 26.3755C48.0964 26.3755 48.5281 26.4859 48.9245 26.7062ZM34.8117 32.8243L36.3292 32.3643L36.6273 33.285L35.1159 33.8025L36.0541 35.1382L35.2631 35.7143L34.2755 34.4021L33.3136 35.6796L32.5455 35.0923L33.4837 33.8025L31.9607 33.2507L32.2589 32.3293L33.7883 32.8241V31.2357H34.8117V32.8243ZM28.4761 26.5141C28.9434 26.9193 29.3076 27.417 29.5696 28.0064C29.8316 28.5966 29.9625 29.2748 29.9623 30.0423C29.9623 30.8812 29.8172 31.6307 29.5273 32.2916C29.2368 32.9525 28.8439 33.5105 28.3486 33.965C27.8531 34.4202 27.2726 34.7686 26.6074 35.01C25.942 35.2512 25.2343 35.3723 24.4841 35.3723C23.2238 35.3723 22.1622 35.077 21.2989 34.4875C20.7048 34.0818 20.2241 33.5709 19.8511 32.9602L21.6952 31.2254L21.7234 31.2148C21.936 31.812 22.2896 32.2916 22.7852 32.6539C23.2806 33.0162 23.8684 33.1977 24.5476 33.1977C24.93 33.1977 25.2909 33.1339 25.6306 33.0055C25.9707 32.8779 26.2677 32.6932 26.5227 32.4512C26.7772 32.21 26.9791 31.9075 27.1276 31.5455C27.2763 31.1832 27.3507 30.7745 27.3507 30.3196C27.3507 29.7368 27.2514 29.2534 27.0535 28.8698C26.855 28.4862 26.5969 28.1768 26.2784 27.9425C25.9598 27.7082 25.6023 27.5446 25.2061 27.4521C24.8096 27.3598 24.4061 27.3137 23.9957 27.3137C23.7124 27.3137 23.4118 27.335 23.0933 27.3775C22.7747 27.4205 22.4631 27.4807 22.1588 27.5589C21.8543 27.637 21.5571 27.7259 21.2671 27.825C20.9768 27.9248 20.7182 28.0314 20.4921 28.1448L20.747 19.8946H29.3044V22.197H23.1676L23.0191 25.4591C23.2598 25.3879 23.5463 25.3384 23.8791 25.3095C24.2117 25.2816 24.5124 25.267 24.7815 25.267C25.5173 25.267 26.2005 25.3737 26.8306 25.5868C27.4604 25.7998 28.0091 26.1091 28.4761 26.5141Z" fill="#393939"/>
</svg>
